<svg width="15" height="15" viewBox="0 0 15 15" fill="none" xmlns="http://www.w3.org/2000/svg">
<path fill-rule="evenodd" clip-rule="evenodd" d="M10.9084 6.13584C10.9084 6.76258 10.7849 7.38318 10.5451 7.96221C10.3053 8.54125 9.95371 9.06737 9.51054 9.51054C9.06737 9.95371 8.54125 10.3053 7.96221 10.5451C7.38318 10.7849 6.76258 10.9084 6.13584 10.9084C5.5091 10.9084 4.8885 10.7849 4.30946 10.5451C3.73043 10.3053 3.20431 9.95371 2.76114 9.51054C2.31797 9.06737 1.96642 8.54125 1.72658 7.96221C1.48674 7.38318 1.36329 6.76258 1.36329 6.13584C1.36329 4.87008 1.86611 3.65617 2.76114 2.76114C3.65617 1.86611 4.87008 1.36329 6.13584 1.36329C7.4016 1.36329 8.61551 1.86611 9.51054 2.76114C10.4056 3.65617 10.9084 4.87008 10.9084 6.13584ZM9.96615 10.9302C8.74085 11.9091 7.18725 12.3817 5.6244 12.2509C4.06156 12.1201 2.60811 11.3959 1.56257 10.2269C0.517018 9.05799 -0.0412633 7.53308 0.00237866 5.96538C0.0460206 4.39768 0.688273 2.90619 1.79723 1.79723C2.90619 0.688273 4.39768 0.0460206 5.96538 0.00237866C7.53308 -0.0412633 9.05799 0.517018 10.2269 1.56257C11.3959 2.60811 12.1201 4.06156 12.2509 5.6244C12.3817 7.18725 11.9091 8.74085 10.9302 9.96615L14.8001 13.8346C14.8634 13.898 14.9137 13.9733 14.948 14.0561C14.9823 14.1389 15 14.2277 15 14.3173C15 14.407 14.9823 14.4958 14.948 14.5786C14.9137 14.6614 14.8634 14.7367 14.8001 14.8001C14.7367 14.8634 14.6614 14.9137 14.5786 14.948C14.4958 14.9823 14.407 15 14.3173 15C14.2277 15 14.1389 14.9823 14.0561 14.948C13.9733 14.9137 13.898 14.8634 13.8346 14.8001L9.96751 10.9302H9.96615Z" fill="black"/>
</svg>
